<svg width="503" height="133" viewBox="0 0 503 133" fill="none" xmlns="http://www.w3.org/2000/svg">
<path d="M80 21L31.5 58L35.5 62L80 21Z" fill="#D9D9D9"/>
<path d="M73 110L121.5 73L117.5 69L73 110Z" fill="#D9D9D9"/>
<path d="M121.328 69.4989L83.9999 21.2508L80.0271 25.2778L121.328 69.4989Z" fill="#D9D9D9"/>
<path d="M32 61L69 109.5L73 105.5L32 61Z" fill="#D9D9D9"/>
<path d="M180.308 51.08V88H171.78V72.868H157.064V88H148.536V51.08H157.064V65.38H171.78V51.08H180.308ZM199.303 88.52C196.98 88.52 194.917 88.156 193.115 87.428C191.312 86.6653 189.769 85.6427 188.487 84.36C187.239 83.0773 186.285 81.604 185.627 79.94C184.968 78.2413 184.639 76.4733 184.639 74.636C184.639 72.0013 185.211 69.6093 186.355 67.46C187.533 65.276 189.215 63.5253 191.399 62.208C193.583 60.856 196.217 60.18 199.303 60.18C202.388 60.18 205.005 60.8387 207.155 62.156C209.339 63.4733 211.003 65.2067 212.147 67.356C213.291 69.4707 213.863 71.776 213.863 74.272C213.863 74.7573 213.828 75.2427 213.759 75.728C213.724 76.1787 213.689 76.5773 213.655 76.924H193.479C193.583 78.1373 193.912 79.16 194.467 79.992C195.056 80.824 195.801 81.4653 196.703 81.916C197.604 82.332 198.557 82.54 199.563 82.54C200.811 82.54 201.972 82.2453 203.047 81.656C204.156 81.0667 204.919 80.2693 205.335 79.264L212.407 81.24C211.713 82.6613 210.725 83.9267 209.443 85.036C208.195 86.1107 206.704 86.96 204.971 87.584C203.272 88.208 201.383 88.52 199.303 88.52ZM193.271 71.828H205.127C204.988 70.684 204.659 69.696 204.139 68.864C203.619 67.9973 202.925 67.3387 202.059 66.888C201.192 66.4027 200.239 66.16 199.199 66.16C198.124 66.16 197.153 66.4027 196.287 66.888C195.455 67.3387 194.779 67.9973 194.259 68.864C193.739 69.696 193.409 70.684 193.271 71.828ZM215.917 79.836C215.917 78.0333 216.42 76.456 217.425 75.104C218.431 73.752 219.817 72.6947 221.585 71.932C223.353 71.1347 225.381 70.736 227.669 70.736C228.779 70.736 229.871 70.84 230.945 71.048C232.02 71.2213 232.956 71.4813 233.753 71.828V70.632C233.753 69.1413 233.303 67.9973 232.401 67.2C231.5 66.4027 230.131 66.004 228.293 66.004C226.768 66.004 225.329 66.264 223.977 66.784C222.66 67.304 221.256 68.0493 219.765 69.02L217.269 63.716C219.072 62.5373 220.944 61.6533 222.885 61.064C224.861 60.4747 226.941 60.18 229.125 60.18C233.216 60.18 236.388 61.168 238.641 63.144C240.929 65.0853 242.073 67.9107 242.073 71.62V78.744C242.073 79.576 242.195 80.1653 242.437 80.512C242.715 80.824 243.183 81.0147 243.841 81.084V88C243.148 88.1387 242.489 88.2427 241.865 88.312C241.276 88.3813 240.756 88.416 240.305 88.416C238.745 88.416 237.549 88.104 236.717 87.48C235.92 86.856 235.417 86.0067 235.209 84.932L235.053 83.736C233.84 85.296 232.384 86.492 230.685 87.324C229.021 88.1213 227.271 88.52 225.433 88.52C223.631 88.52 222.001 88.1387 220.545 87.376C219.124 86.6133 217.997 85.5733 217.165 84.256C216.333 82.9387 215.917 81.4653 215.917 79.836ZM232.453 80.876C232.835 80.564 233.147 80.2173 233.389 79.836C233.632 79.4547 233.753 79.0907 233.753 78.744V76.3C233.06 76.0227 232.28 75.8147 231.413 75.676C230.581 75.5027 229.801 75.416 229.073 75.416C227.548 75.416 226.283 75.7627 225.277 76.456C224.272 77.1147 223.769 77.9987 223.769 79.108C223.769 79.732 223.943 80.304 224.289 80.824C224.636 81.344 225.104 81.76 225.693 82.072C226.317 82.384 227.045 82.54 227.877 82.54C228.709 82.54 229.541 82.384 230.373 82.072C231.205 81.76 231.899 81.3613 232.453 80.876ZM246.542 74.324C246.542 71.6547 247.062 69.2627 248.102 67.148C249.142 64.9987 250.564 63.3 252.366 62.052C254.169 60.804 256.249 60.18 258.606 60.18C260.513 60.18 262.246 60.648 263.806 61.584C265.366 62.4853 266.545 63.6813 267.342 65.172V50.04H275.662V78.744C275.662 79.576 275.801 80.1653 276.078 80.512C276.356 80.824 276.806 81.0147 277.43 81.084V88C275.974 88.2773 274.796 88.416 273.894 88.416C272.473 88.416 271.312 88.104 270.41 87.48C269.544 86.856 269.006 85.9893 268.798 84.88L268.642 83.476C267.672 85.1747 266.354 86.44 264.69 87.272C263.026 88.104 261.276 88.52 259.438 88.52C257.566 88.52 255.833 88.1733 254.238 87.48C252.678 86.752 251.309 85.7467 250.13 84.464C248.986 83.1813 248.102 81.6733 247.478 79.94C246.854 78.2067 246.542 76.3347 246.542 74.324ZM267.394 77.704V71.984C267.048 71.048 266.545 70.2333 265.886 69.54C265.262 68.8467 264.534 68.292 263.702 67.876C262.905 67.46 262.09 67.252 261.258 67.252C260.357 67.252 259.525 67.4427 258.762 67.824C258.034 68.2053 257.393 68.7427 256.838 69.436C256.284 70.0947 255.85 70.8573 255.538 71.724C255.261 72.5907 255.122 73.5093 255.122 74.48C255.122 75.4853 255.278 76.4213 255.59 77.288C255.937 78.12 256.405 78.8653 256.994 79.524C257.584 80.148 258.277 80.6333 259.074 80.98C259.872 81.3267 260.738 81.5 261.674 81.5C262.264 81.5 262.836 81.4133 263.39 81.24C263.945 81.032 264.465 80.772 264.95 80.46C265.47 80.148 265.938 79.7493 266.354 79.264C266.77 78.7787 267.117 78.2587 267.394 77.704ZM295.178 88.52C292.855 88.52 290.792 88.156 288.99 87.428C287.187 86.6653 285.644 85.6427 284.362 84.36C283.114 83.0773 282.16 81.604 281.502 79.94C280.843 78.2413 280.514 76.4733 280.514 74.636C280.514 72.0013 281.086 69.6093 282.23 67.46C283.408 65.276 285.09 63.5253 287.274 62.208C289.458 60.856 292.092 60.18 295.178 60.18C298.263 60.18 300.88 60.8387 303.03 62.156C305.214 63.4733 306.878 65.2067 308.022 67.356C309.166 69.4707 309.738 71.776 309.738 74.272C309.738 74.7573 309.703 75.2427 309.634 75.728C309.599 76.1787 309.564 76.5773 309.53 76.924H289.354C289.458 78.1373 289.787 79.16 290.342 79.992C290.931 80.824 291.676 81.4653 292.578 81.916C293.479 82.332 294.432 82.54 295.438 82.54C296.686 82.54 297.847 82.2453 298.922 81.656C300.031 81.0667 300.794 80.2693 301.21 79.264L308.282 81.24C307.588 82.6613 306.6 83.9267 305.318 85.036C304.07 86.1107 302.579 86.96 300.846 87.584C299.147 88.208 297.258 88.52 295.178 88.52ZM289.146 71.828H301.002C300.863 70.684 300.534 69.696 300.014 68.864C299.494 67.9973 298.8 67.3387 297.934 66.888C297.067 66.4027 296.114 66.16 295.074 66.16C293.999 66.16 293.028 66.4027 292.162 66.888C291.33 67.3387 290.654 67.9973 290.134 68.864C289.614 69.696 289.284 70.684 289.146 71.828ZM330.824 67.824C328.814 67.824 326.994 68.1533 325.364 68.812C323.735 69.436 322.556 70.372 321.828 71.62V88H313.508V60.7H321.152V66.212C322.088 64.3747 323.302 62.936 324.792 61.896C326.283 60.856 327.843 60.3187 329.472 60.284C329.854 60.284 330.131 60.284 330.304 60.284C330.512 60.284 330.686 60.3013 330.824 60.336V67.824ZM346.024 88V51.08H354.552V80.512H372.44V88H346.024ZM388.614 88.52C386.291 88.52 384.211 88.1387 382.374 87.376C380.571 86.6133 379.046 85.5733 377.798 84.256C376.55 82.9387 375.597 81.4307 374.938 79.732C374.314 78.0333 374.002 76.248 374.002 74.376C374.002 72.4693 374.314 70.6667 374.938 68.968C375.597 67.2693 376.55 65.7613 377.798 64.444C379.046 63.1267 380.571 62.0867 382.374 61.324C384.211 60.5613 386.291 60.18 388.614 60.18C390.937 60.18 392.999 60.5613 394.802 61.324C396.605 62.0867 398.13 63.1267 399.378 64.444C400.626 65.7613 401.579 67.2693 402.238 68.968C402.897 70.6667 403.226 72.4693 403.226 74.376C403.226 76.248 402.897 78.0333 402.238 79.732C401.579 81.4307 400.626 82.9387 399.378 84.256C398.13 85.5733 396.605 86.6133 394.802 87.376C392.999 88.1387 390.937 88.52 388.614 88.52ZM382.53 74.376C382.53 75.7973 382.79 77.0453 383.31 78.12C383.865 79.1947 384.593 80.0267 385.494 80.616C386.395 81.2053 387.435 81.5 388.614 81.5C389.758 81.5 390.781 81.2053 391.682 80.616C392.618 79.992 393.346 79.1427 393.866 78.068C394.386 76.9933 394.646 75.7627 394.646 74.376C394.646 72.9547 394.386 71.7067 393.866 70.632C393.346 69.5573 392.618 68.7253 391.682 68.136C390.781 67.5467 389.758 67.252 388.614 67.252C387.435 67.252 386.395 67.5467 385.494 68.136C384.593 68.7253 383.865 69.5573 383.31 70.632C382.79 71.7067 382.53 72.9547 382.53 74.376ZM417.96 88.104C416.158 88.104 414.511 87.7573 413.02 87.064C411.53 86.336 410.247 85.348 409.172 84.1C408.132 82.8173 407.318 81.344 406.728 79.68C406.139 78.016 405.844 76.2307 405.844 74.324C405.844 72.3133 406.156 70.4587 406.78 68.76C407.404 67.0613 408.271 65.5707 409.38 64.288C410.524 62.9707 411.859 61.9653 413.384 61.272C414.944 60.544 416.66 60.18 418.532 60.18C420.578 60.18 422.38 60.6307 423.94 61.532C425.5 62.3987 426.748 63.612 427.684 65.172V60.7H434.912V86.128C434.912 88.9013 434.236 91.2933 432.884 93.304C431.567 95.3147 429.712 96.8573 427.32 97.932C424.963 99.0413 422.224 99.596 419.104 99.596C416.192 99.596 413.679 99.1107 411.564 98.14C409.484 97.204 407.664 95.8693 406.104 94.136L410.576 89.612C411.582 90.756 412.83 91.6573 414.32 92.316C415.811 93.0093 417.406 93.356 419.104 93.356C420.456 93.356 421.704 93.1133 422.848 92.628C423.992 92.1427 424.894 91.3627 425.552 90.288C426.246 89.2133 426.592 87.8267 426.592 86.128V83.476C425.76 84.9667 424.547 86.1107 422.952 86.908C421.392 87.7053 419.728 88.104 417.96 88.104ZM420.82 81.5C421.479 81.5 422.086 81.4133 422.64 81.24C423.23 81.032 423.767 80.772 424.252 80.46C424.738 80.1133 425.188 79.7147 425.604 79.264C426.02 78.7787 426.35 78.2587 426.592 77.704V71.984C426.246 71.0133 425.743 70.1813 425.084 69.488C424.426 68.76 423.698 68.2053 422.9 67.824C422.103 67.4427 421.271 67.252 420.404 67.252C419.538 67.252 418.723 67.4427 417.96 67.824C417.198 68.2053 416.539 68.76 415.984 69.488C415.464 70.1813 415.048 70.9613 414.736 71.828C414.459 72.6947 414.32 73.596 414.32 74.532C414.32 75.5373 414.476 76.456 414.788 77.288C415.135 78.12 415.603 78.8653 416.192 79.524C416.782 80.148 417.475 80.6333 418.272 80.98C419.07 81.3267 419.919 81.5 420.82 81.5ZM453.614 88.52C451.291 88.52 449.211 88.1387 447.374 87.376C445.571 86.6133 444.046 85.5733 442.798 84.256C441.55 82.9387 440.597 81.4307 439.938 79.732C439.314 78.0333 439.002 76.248 439.002 74.376C439.002 72.4693 439.314 70.6667 439.938 68.968C440.597 67.2693 441.55 65.7613 442.798 64.444C444.046 63.1267 445.571 62.0867 447.374 61.324C449.211 60.5613 451.291 60.18 453.614 60.18C455.937 60.18 457.999 60.5613 459.802 61.324C461.605 62.0867 463.13 63.1267 464.378 64.444C465.626 65.7613 466.579 67.2693 467.238 68.968C467.897 70.6667 468.226 72.4693 468.226 74.376C468.226 76.248 467.897 78.0333 467.238 79.732C466.579 81.4307 465.626 82.9387 464.378 84.256C463.13 85.5733 461.605 86.6133 459.802 87.376C457.999 88.1387 455.937 88.52 453.614 88.52ZM447.53 74.376C447.53 75.7973 447.79 77.0453 448.31 78.12C448.865 79.1947 449.593 80.0267 450.494 80.616C451.395 81.2053 452.435 81.5 453.614 81.5C454.758 81.5 455.781 81.2053 456.682 80.616C457.618 79.992 458.346 79.1427 458.866 78.068C459.386 76.9933 459.646 75.7627 459.646 74.376C459.646 72.9547 459.386 71.7067 458.866 70.632C458.346 69.5573 457.618 68.7253 456.682 68.136C455.781 67.5467 454.758 67.252 453.614 67.252C452.435 67.252 451.395 67.5467 450.494 68.136C449.593 68.7253 448.865 69.5573 448.31 70.632C447.79 71.7067 447.53 72.9547 447.53 74.376Z" fill="white"/>
</svg>
